<svg width="31" height="31" viewBox="0 0 31 31" fill="none" xmlns="http://www.w3.org/2000/svg">
<path d="M8.74293 2.28345C8.48693 2.28345 8.2309 2.38142 8.0359 2.57642L2.44996 8.16235C2.05896 8.55335 2.05896 9.18642 2.44996 9.57642L8.24293 15.3694L9.65699 13.9553L4.57105 8.86938L8.74293 4.69751L10.0359 5.99048L8.74293 7.28345L10.157 8.69751L11.45 7.40454L12.5359 8.49048L10.45 10.5764L11.7429 11.8694L15.2429 8.36938L13.95 7.07642L9.44996 2.57642C9.25496 2.38142 8.99893 2.28345 8.74293 2.28345ZM23.9832 3.28345C23.4719 3.28395 22.9596 3.48084 22.5691 3.87134L21.157 5.28345L25.157 9.28345L26.5691 7.87134C27.3501 7.09034 27.3521 5.82617 26.5711 5.04517L25.3953 3.86938C25.0048 3.47888 24.4944 3.28295 23.9832 3.28345ZM19.157 7.28345L5.38746 21.053L6.65699 21.7834L7.15699 23.2834L8.65699 23.7834L9.38746 25.053L23.157 11.2834L19.157 7.28345ZM22.0711 15.1975L18.5711 18.6975L19.864 19.9905L21.95 17.9045L23.0359 18.9905L21.7429 20.2834L23.157 21.6975L24.45 20.4045L25.7429 21.6975L21.5711 25.8694L16.4851 20.7834L15.0711 22.1975L20.864 27.9905C21.059 28.1855 21.3151 28.2834 21.5711 28.2834C21.8271 28.2834 22.0831 28.1855 22.2781 27.9905L27.864 22.4045C28.255 22.0145 28.255 21.3815 27.864 20.9905L23.364 16.4905L22.0711 15.1975ZM4.04957 24.176L3.1941 26.592C3.16929 26.6528 3.15668 26.7178 3.15699 26.7834C3.15699 26.9161 3.20967 27.0432 3.30344 27.137C3.3972 27.2308 3.52438 27.2834 3.65699 27.2834C3.71907 27.2838 3.78067 27.2725 3.83863 27.2502L6.26636 26.3928L4.04957 24.176Z" fill="black"/>
</svg>
