<svg width="19" height="19" viewBox="0 0 19 19" fill="none" xmlns="http://www.w3.org/2000/svg">
<path d="M4.9509 2.99153C3.79222 4.1485 3.11831 5.70376 3.06649 7.34035C3.01468 8.97695 3.58886 10.5717 4.67204 11.7997C5.75521 13.0276 7.26585 13.7963 8.89612 13.9492C10.4967 14.0992 12.0943 13.6446 13.3751 12.6767L16.7063 16.0087L16.7063 16.0087C16.7891 16.0915 16.8875 16.1572 16.9957 16.2021C17.104 16.2469 17.22 16.27 17.3371 16.27C17.4543 16.27 17.5703 16.2469 17.6785 16.2021C17.7868 16.1572 17.8851 16.0915 17.9679 16.0087C18.0508 15.9258 18.1165 15.8275 18.1613 15.7192C18.2062 15.611 18.2292 15.495 18.2292 15.3779C18.2292 15.2607 18.2062 15.1447 18.1613 15.0365C18.1165 14.9282 18.0508 14.8299 17.9679 14.747L17.9679 14.747L14.6362 11.4161C15.6015 10.1351 16.0541 8.53858 15.9032 6.93955C15.7495 5.31066 14.981 3.80151 13.7541 2.71913C12.5271 1.63674 10.9339 1.06244 9.29856 1.11304C7.66321 1.16365 6.10857 1.83536 4.9509 2.99153ZM4.9509 2.99153L5.02156 3.06229L4.9509 2.99153ZM12.7889 4.25378C13.2265 4.68428 13.5745 5.19715 13.8129 5.76281C14.0512 6.32848 14.1752 6.93574 14.1777 7.54956C14.1802 8.16339 14.0612 8.77164 13.8274 9.33923C13.5937 9.90681 13.2499 10.4225 12.8158 10.8565C12.3818 11.2906 11.8661 11.6344 11.2985 11.8682C10.7309 12.1019 10.1227 12.221 9.50883 12.2185C8.895 12.216 8.28774 12.092 7.72208 11.8536C7.15642 11.6152 6.64355 11.2672 6.21305 10.8297C5.35274 9.95522 4.87281 8.77625 4.8778 7.54956C4.8828 6.32288 5.37231 5.14786 6.23972 4.28045C7.10712 3.41304 8.28214 2.92353 9.50883 2.91854C10.7355 2.91354 11.9145 3.39347 12.7889 4.25378Z" fill="black" stroke="black" stroke-width="0.2"/>
</svg>
