<svg width="20" height="20" viewBox="0 0 20 20" fill="none" xmlns="http://www.w3.org/2000/svg">
<path d="M9.99997 7.39658C8.56638 7.39658 7.39646 8.5665 7.39646 10.0001C7.39646 11.4337 8.56638 12.6036 9.99997 12.6036C11.4336 12.6036 12.6035 11.4337 12.6035 10.0001C12.6035 8.5665 11.4336 7.39658 9.99997 7.39658ZM17.8086 10.0001C17.8086 8.92197 17.8183 7.85361 17.7578 6.77744C17.6972 5.52744 17.4121 4.41806 16.498 3.504C15.582 2.58798 14.4746 2.30478 13.2246 2.24423C12.1465 2.18369 11.0781 2.19345 10.0019 2.19345C8.9238 2.19345 7.85544 2.18369 6.77927 2.24423C5.52927 2.30478 4.41989 2.58994 3.50583 3.504C2.58981 4.42001 2.30661 5.52744 2.24606 6.77744C2.18552 7.85556 2.19528 8.92392 2.19528 10.0001C2.19528 11.0763 2.18552 12.1466 2.24606 13.2227C2.30661 14.4727 2.59177 15.5821 3.50583 16.4962C4.42185 17.4122 5.52927 17.6954 6.77927 17.7559C7.85739 17.8165 8.92575 17.8067 10.0019 17.8067C11.08 17.8067 12.1484 17.8165 13.2246 17.7559C14.4746 17.6954 15.584 17.4102 16.498 16.4962C17.414 15.5802 17.6972 14.4727 17.7578 13.2227C17.8203 12.1466 17.8086 11.0782 17.8086 10.0001ZM9.99997 14.0059C7.78317 14.0059 5.99411 12.2169 5.99411 10.0001C5.99411 7.78329 7.78317 5.99423 9.99997 5.99423C12.2168 5.99423 14.0058 7.78329 14.0058 10.0001C14.0058 12.2169 12.2168 14.0059 9.99997 14.0059ZM14.1699 6.76572C13.6523 6.76572 13.2343 6.34775 13.2343 5.83017C13.2343 5.31259 13.6523 4.89462 14.1699 4.89462C14.6875 4.89462 15.1054 5.31259 15.1054 5.83017C15.1056 5.95307 15.0815 6.0748 15.0345 6.18837C14.9876 6.30195 14.9187 6.40514 14.8318 6.49205C14.7449 6.57895 14.6417 6.64786 14.5281 6.69482C14.4145 6.74178 14.2928 6.76587 14.1699 6.76572Z" fill="white"/>
</svg>
