<svg width="33" height="32" viewBox="0 0 33 32" fill="none" xmlns="http://www.w3.org/2000/svg">
<path d="M14.5834 27.8334C15.1359 27.8334 15.6658 27.6139 16.0565 27.2232C16.4472 26.8325 16.6667 26.3026 16.6667 25.7501C16.6667 25.1975 16.4472 24.6676 16.0565 24.2769C15.6658 23.8862 15.1359 23.6667 14.5834 23.6667C14.0308 23.6667 13.5009 23.8862 13.1102 24.2769C12.7195 24.6676 12.5 25.1975 12.5 25.7501C12.5 26.3026 12.7195 26.8325 13.1102 27.2232C13.5009 27.6139 14.0308 27.8334 14.5834 27.8334ZM7.29168 27.8334C7.84422 27.8334 8.37412 27.6139 8.76482 27.2232C9.15552 26.8325 9.37502 26.3026 9.37502 25.7501C9.37502 25.1975 9.15552 24.6676 8.76482 24.2769C8.37412 23.8862 7.84422 23.6667 7.29168 23.6667C6.73915 23.6667 6.20925 23.8862 5.81854 24.2769C5.42784 24.6676 5.20835 25.1975 5.20835 25.7501C5.20835 26.3026 5.42784 26.8325 5.81854 27.2232C6.20925 27.6139 6.73915 27.8334 7.29168 27.8334ZM20.8729 13.1699C21.133 13.1615 21.3796 13.0523 21.5605 12.8654C21.7415 12.6785 21.8427 12.4285 21.8427 12.1683C21.8427 11.9081 21.7415 11.6582 21.5605 11.4712C21.3796 11.2843 21.133 11.1751 20.8729 11.1667H19.674C18.7344 11.1667 17.9219 11.8188 17.7177 12.7355L16.4125 18.6126C16.2083 19.5292 15.3959 20.1813 14.4563 20.1813H6.63127L5.12918 14.1709H14.8636C15.1212 14.1592 15.3643 14.0486 15.5424 13.8621C15.7206 13.6757 15.82 13.4277 15.82 13.1699C15.82 12.912 15.7206 12.6641 15.5424 12.4776C15.3643 12.2912 15.1212 12.1806 14.8636 12.1688H5.12918C4.82467 12.1687 4.52414 12.2381 4.25045 12.3716C3.97676 12.5051 3.7371 12.6992 3.5497 12.9392C3.3623 13.1793 3.23209 13.4588 3.16897 13.7567C3.10585 14.0546 3.11148 14.363 3.18543 14.6584L4.68752 20.6667C4.7958 21.1003 5.04594 21.4852 5.39815 21.7602C5.75036 22.0352 6.18441 22.1845 6.63127 22.1845H14.4563C15.3679 22.1846 16.2524 21.8738 16.9635 21.3033C17.6747 20.7329 18.17 19.9369 18.3677 19.047L19.674 13.1699H20.8729Z" fill="black"/>
<circle cx="25" cy="9" r="8" fill="#0156FF"/>
<path d="M22.5336 10.63C22.7602 10.45 22.8636 10.3667 22.8436 10.38C23.4969 9.84 24.0102 9.39667 24.3836 9.05C24.7636 8.70333 25.0836 8.34 25.3436 7.96C25.6036 7.58 25.7336 7.21 25.7336 6.85C25.7336 6.57667 25.6702 6.36333 25.5436 6.21C25.4169 6.05667 25.2269 5.98 24.9736 5.98C24.7202 5.98 24.5202 6.07667 24.3736 6.27C24.2336 6.45667 24.1636 6.72333 24.1636 7.07H22.5136C22.5269 6.50333 22.6469 6.03 22.8736 5.65C23.1069 5.27 23.4102 4.99 23.7836 4.81C24.1636 4.63 24.5836 4.54 25.0436 4.54C25.8369 4.54 26.4336 4.74333 26.8336 5.15C27.2402 5.55667 27.4436 6.08667 27.4436 6.74C27.4436 7.45333 27.2002 8.11667 26.7136 8.73C26.2269 9.33667 25.6069 9.93 24.8536 10.51H27.5536V11.9H22.5336V10.63Z" fill="white"/>
</svg>
