<svg width="13" height="14" viewBox="0 0 13 14" fill="none" xmlns="http://www.w3.org/2000/svg">
<path d="M6.41099 0.915046C6.44815 0.842481 6.55185 0.842481 6.58901 0.915045L8.42922 4.50893C8.44375 4.5373 8.47092 4.55704 8.50239 4.56209L12.489 5.20166C12.5695 5.21458 12.6016 5.31321 12.544 5.37097L9.69471 8.23169C9.67222 8.25427 9.66184 8.28622 9.66677 8.3177L10.2904 12.3069C10.303 12.3874 10.2191 12.4484 10.1464 12.4115L6.54522 10.5856C6.5168 10.5712 6.4832 10.5712 6.45478 10.5856L2.85358 12.4115C2.78087 12.4484 2.69697 12.3874 2.70956 12.3069L3.33323 8.3177C3.33816 8.28622 3.32778 8.25427 3.30529 8.23169L0.455954 5.37097C0.398423 5.31321 0.43047 5.21458 0.510965 5.20166L4.49761 4.56209C4.52908 4.55704 4.55625 4.5373 4.57078 4.50893L6.41099 0.915046Z" fill="#E9A426"/>
</svg>
