<svg width="14" height="14" viewBox="0 0 14 14" fill="none" xmlns="http://www.w3.org/2000/svg">
<path d="M6.56724 0.915046C6.6044 0.842481 6.7081 0.842481 6.74526 0.915045L8.58547 4.50893C8.6 4.5373 8.62717 4.55704 8.65864 4.56209L12.6453 5.20166C12.7258 5.21458 12.7578 5.31321 12.7003 5.37097L9.85096 8.23169C9.82847 8.25427 9.81809 8.28622 9.82302 8.3177L10.4467 12.3069C10.4593 12.3874 10.3754 12.4484 10.3027 12.4115L6.70147 10.5856C6.67305 10.5712 6.63945 10.5712 6.61103 10.5856L3.00983 12.4115C2.93712 12.4484 2.85322 12.3874 2.86581 12.3069L3.48948 8.3177C3.49441 8.28622 3.48403 8.25427 3.46154 8.23169L0.612204 5.37097C0.554673 5.31321 0.58672 5.21458 0.667215 5.20166L4.65386 4.56209C4.68533 4.55704 4.7125 4.5373 4.72703 4.50893L6.56724 0.915046Z" fill="#C4C4C4"/>
</svg>
