<svg width="28" height="28" viewBox="0 0 28 28" fill="none" xmlns="http://www.w3.org/2000/svg">
<path d="M14.07 18.585L14 18.655L13.923 18.585C10.598 15.568 8.4 13.573 8.4 11.55C8.4 10.15 9.45 9.09995 10.85 9.09995C11.928 9.09995 12.978 9.79995 13.349 10.752H14.651C15.022 9.79995 16.072 9.09995 17.15 9.09995C18.55 9.09995 19.6 10.15 19.6 11.55C19.6 13.573 17.402 15.568 14.07 18.585ZM17.15 7.69995C15.932 7.69995 14.763 8.26695 14 9.15595C13.237 8.26695 12.068 7.69995 10.85 7.69995C8.694 7.69995 7 9.38695 7 11.55C7 14.189 9.38 16.352 12.985 19.621L14 20.545L15.015 19.621C18.62 16.352 21 14.189 21 11.55C21 9.38695 19.306 7.69995 17.15 7.69995Z" fill="#2979FF"/>
</svg>
